<svg xmlns="http://www.w3.org/2000/svg" viewBox="0 0 128 128" role="img" aria-label="Human Systems icon">
  <defs>
    <linearGradient id="bg" x1="0" x2="1" y1="0" y2="1">
      <stop offset="0%" stop-color="#f2f8ff"/>
      <stop offset="100%" stop-color="#deebf8"/>
    </linearGradient>
  </defs>
  <rect x="4" y="4" width="120" height="120" rx="24" fill="url(#bg)" stroke="#9ebad5"/>
  <circle cx="40" cy="42" r="10" fill="#012151"/>
  <circle cx="64" cy="34" r="11" fill="#027197"/>
  <circle cx="88" cy="42" r="10" fill="#012151"/>
  <path d="M24 78c0-10 8-18 18-18h44c10 0 18 8 18 18" fill="#ffffff" stroke="#1f5a8b" stroke-width="3"/>
  <path d="M52 58c3 3 6 5 12 5s9-2 12-5" fill="none" stroke="#1f5a8b" stroke-width="3" stroke-linecap="round"/>
  <path d="M64 78l4 8 9 1-6 6 1 9-8-5-8 5 1-9-6-6 9-1z" fill="#f4a524" stroke="#a56b00" stroke-width="2"/>
</svg>
