<svg xmlns="http://www.w3.org/2000/svg" viewBox="110 0 580 540" width="900" height="620" font-family="system-ui, -apple-system, sans-serif">
  <defs>
    <filter id="nodeGlow" x="-50%" y="-50%" width="200%" height="200%">
      <feGaussianBlur stdDeviation="7" result="blur"/>
      <feMerge><feMergeNode in="blur"/><feMergeNode in="SourceGraphic"/></feMerge>
    </filter>
    <filter id="centerGlow" x="-50%" y="-50%" width="220%" height="220%">
      <feGaussianBlur stdDeviation="14" result="blur"/>
      <feMerge><feMergeNode in="blur"/><feMergeNode in="SourceGraphic"/></feMerge>
    </filter>
    <radialGradient id="bizGrad" cx="35%" cy="30%" r="65%">
      <stop offset="0%" stop-color="#1a3a5c"/><stop offset="100%" stop-color="#0a1e36"/>
    </radialGradient>
    <radialGradient id="infoGrad" cx="35%" cy="30%" r="65%">
      <stop offset="0%" stop-color="#0f3020"/><stop offset="100%" stop-color="#071a10"/>
    </radialGradient>
    <radialGradient id="peopleGrad" cx="35%" cy="30%" r="65%">
      <stop offset="0%" stop-color="#3a2000"/><stop offset="100%" stop-color="#1a0e00"/>
    </radialGradient>
    <radialGradient id="orgGrad" cx="35%" cy="30%" r="65%">
      <stop offset="0%" stop-color="#2a1040"/><stop offset="100%" stop-color="#140820"/>
    </radialGradient>
  </defs>

  <g stroke-width="1.5" stroke-dasharray="6,4" opacity="0.4">
    <line x1="200" y1="205" x2="600" y2="205" stroke="#4fc3f7"/>
    <line x1="200" y1="205" x2="200" y2="445" stroke="#4fc3f7"/>
    <line x1="600" y1="205" x2="600" y2="445" stroke="#81c784"/>
    <line x1="200" y1="445" x2="600" y2="445" stroke="#ffb74d"/>
  </g>

  <line x1="200" y1="205" x2="600" y2="445" stroke="#8080a0" stroke-width="1" stroke-dasharray="3,6" opacity="0.16"/>
  <line x1="600" y1="205" x2="200" y2="445" stroke="#8080a0" stroke-width="1" stroke-dasharray="3,6" opacity="0.16"/>

  <g stroke-width="1.7" opacity="0.54">
    <line x1="200" y1="205" x2="400" y2="325" stroke="#4fc3f7"/>
    <line x1="600" y1="205" x2="400" y2="325" stroke="#81c784"/>
    <line x1="200" y1="445" x2="400" y2="325" stroke="#ffb74d"/>
    <line x1="600" y1="445" x2="400" y2="325" stroke="#ce93d8"/>
  </g>

  <circle cx="400" cy="325" r="84" fill="#0e1e38" stroke="#f9a825" stroke-width="3" filter="url(#centerGlow)"/>
  <circle cx="400" cy="325" r="75" fill="none" stroke="#f9a825" stroke-width="0.65" opacity="0.35"/>
  <text x="400" y="306" text-anchor="middle" font-size="18" font-weight="700" fill="#fff9c4" letter-spacing="2.6">WHOLE</text>
  <text x="400" y="329" text-anchor="middle" font-size="18" font-weight="700" fill="#fff9c4" letter-spacing="2.6">PROCESS</text>
  <text x="400" y="352" text-anchor="middle" font-size="13" fill="#ffd54f" letter-spacing="1.8" opacity="0.9">DESIGN</text>

  <circle cx="200" cy="205" r="70" fill="url(#bizGrad)" stroke="#4fc3f7" stroke-width="2.5" filter="url(#nodeGlow)"/>
  <circle cx="200" cy="205" r="64" fill="none" stroke="#4fc3f7" stroke-width="0.5" opacity="0.3"/>
  <rect x="188" y="173" width="24" height="30" rx="3" fill="none" stroke="#4fc3f7" stroke-width="1.8" opacity="0.85"/>
  <line x1="193" y1="183" x2="207" y2="183" stroke="#4fc3f7" stroke-width="1.5" opacity="0.85"/>
  <line x1="193" y1="190" x2="207" y2="190" stroke="#4fc3f7" stroke-width="1.5" opacity="0.85"/>
  <line x1="193" y1="197" x2="201" y2="197" stroke="#4fc3f7" stroke-width="1.5" opacity="0.85"/>
  <text x="200" y="223" text-anchor="middle" font-size="13" font-weight="700" fill="#4fc3f7" letter-spacing="0.5">BUSINESS</text>
  <text x="200" y="239" text-anchor="middle" font-size="10" fill="#90caf9" opacity="0.85">SYSTEMS</text>

  <circle cx="600" cy="205" r="70" fill="url(#infoGrad)" stroke="#81c784" stroke-width="2.5" filter="url(#nodeGlow)"/>
  <circle cx="600" cy="205" r="64" fill="none" stroke="#81c784" stroke-width="0.5" opacity="0.3"/>
  <ellipse cx="600" cy="176" rx="17" ry="5.5" fill="none" stroke="#81c784" stroke-width="1.8" opacity="0.85"/>
  <line x1="583" y1="176" x2="583" y2="198" stroke="#81c784" stroke-width="1.8" opacity="0.85"/>
  <line x1="617" y1="176" x2="617" y2="198" stroke="#81c784" stroke-width="1.8" opacity="0.85"/>
  <ellipse cx="600" cy="198" rx="17" ry="5.5" fill="none" stroke="#81c784" stroke-width="1.8" opacity="0.85"/>
  <ellipse cx="600" cy="187" rx="17" ry="5.5" fill="none" stroke="#81c784" stroke-width="1.2" stroke-dasharray="3,2" opacity="0.5"/>
  <text x="600" y="223" text-anchor="middle" font-size="13" font-weight="700" fill="#81c784" letter-spacing="0.5">INFORMATION</text>
  <text x="600" y="239" text-anchor="middle" font-size="10" fill="#a5d6a7" opacity="0.85">SYSTEMS</text>

  <circle cx="200" cy="445" r="70" fill="url(#peopleGrad)" stroke="#ffb74d" stroke-width="2.5" filter="url(#nodeGlow)"/>
  <circle cx="200" cy="445" r="64" fill="none" stroke="#ffb74d" stroke-width="0.5" opacity="0.3"/>
  <circle cx="200" cy="418" r="9" fill="none" stroke="#ffb74d" stroke-width="1.8" opacity="0.85"/>
  <path d="M183 441 Q183 428 200 428 Q217 428 217 441" fill="none" stroke="#ffb74d" stroke-width="1.8" opacity="0.85"/>
  <text x="200" y="465" text-anchor="middle" font-size="13" font-weight="700" fill="#ffb74d" letter-spacing="0.5">PEOPLE</text>
  <text x="200" y="481" text-anchor="middle" font-size="10" fill="#ffcc80" opacity="0.85">SYSTEMS</text>

  <circle cx="600" cy="445" r="70" fill="url(#orgGrad)" stroke="#ce93d8" stroke-width="2.5" filter="url(#nodeGlow)"/>
  <circle cx="600" cy="445" r="64" fill="none" stroke="#ce93d8" stroke-width="0.5" opacity="0.3"/>
  <rect x="593" y="415" width="14" height="11" rx="2" fill="none" stroke="#ce93d8" stroke-width="1.8" opacity="0.85"/>
  <rect x="577" y="433" width="13" height="10" rx="2" fill="none" stroke="#ce93d8" stroke-width="1.8" opacity="0.85"/>
  <rect x="610" y="433" width="13" height="10" rx="2" fill="none" stroke="#ce93d8" stroke-width="1.8" opacity="0.85"/>
  <line x1="600" y1="426" x2="600" y2="433" stroke="#ce93d8" stroke-width="1.5" opacity="0.75"/>
  <line x1="583" y1="433" x2="617" y2="433" stroke="#ce93d8" stroke-width="1.5" opacity="0.75"/>
  <text x="600" y="465" text-anchor="middle" font-size="13" font-weight="700" fill="#ce93d8" letter-spacing="0.5">ORGANIZATIONAL</text>
  <text x="600" y="481" text-anchor="middle" font-size="10" fill="#e1bee7" opacity="0.85">SYSTEMS</text>

  <rect x="240" y="26" width="320" height="52" rx="3" fill="none" stroke="#80a9d1" stroke-width="0.8" stroke-dasharray="4,3" opacity="0.7"/>
  <text x="400" y="54" text-anchor="middle" font-size="22" font-weight="700" fill="#012151" letter-spacing="3">FOUR SYSTEM LENSES</text>
  <text x="400" y="70" text-anchor="middle" font-size="10" fill="#305a84" letter-spacing="1.5" opacity="0.85">Interconnected · Simultaneous · Aligned</text>
</svg>